<svg width="186" height="19" viewBox="0 0 186 19" fill="none" xmlns="http://www.w3.org/2000/svg">
<path d="M9.40797 10.296L9.59997 5.616H9.38397L6.26397 14.232L3.14396 5.616H2.92797L3.11997 10.296V17.76H-3.51369e-05V1.008H4.24796L6.31197 6.648H6.50396L8.56797 1.008H12.528V17.76H9.40797V10.296ZM25.1426 17.76C24.4066 17.76 23.8146 17.576 23.3666 17.208C22.9186 16.824 22.6546 16.28 22.5746 15.576H22.4546C22.2306 16.392 21.7826 17.008 21.1106 17.424C20.4546 17.84 19.6466 18.048 18.6866 18.048C17.4866 18.048 16.5186 17.728 15.7826 17.088C15.0626 16.432 14.7026 15.52 14.7026 14.352C14.7026 13.056 15.1746 12.096 16.1186 11.472C17.0626 10.848 18.4466 10.536 20.2706 10.536H22.2626V9.912C22.2626 9.176 22.0866 8.624 21.7346 8.256C21.3986 7.872 20.8226 7.68 20.0066 7.68C19.2546 7.68 18.6466 7.824 18.1826 8.112C17.7186 8.4 17.3186 8.776 16.9826 9.24L15.0386 7.512C15.4546 6.808 16.1026 6.232 16.9826 5.784C17.8786 5.32 19.0226 5.088 20.4146 5.088C22.1106 5.088 23.4306 5.48 24.3746 6.264C25.3346 7.032 25.8146 8.2 25.8146 9.768V15.192H27.1826V17.76H25.1426ZM20.0306 15.72C20.6546 15.72 21.1826 15.568 21.6146 15.264C22.0466 14.96 22.2626 14.52 22.2626 13.944V12.456H20.3666C18.9106 12.456 18.1826 12.944 18.1826 13.92V14.4C18.1826 14.832 18.3506 15.16 18.6866 15.384C19.0226 15.608 19.4706 15.72 20.0306 15.72ZM29.4052 17.76V5.376H32.9572V7.632H33.1012C33.2452 7.28 33.4212 6.952 33.6292 6.648C33.8372 6.344 34.0852 6.08 34.3732 5.856C34.6772 5.616 35.0212 5.432 35.4052 5.304C35.8052 5.16 36.2532 5.088 36.7492 5.088C37.3412 5.088 37.8852 5.192 38.3812 5.4C38.8772 5.592 39.3012 5.888 39.6532 6.288C40.0052 6.688 40.2772 7.176 40.4692 7.752C40.6772 8.328 40.7812 8.992 40.7812 9.744V17.76H37.2292V10.224C37.2292 8.624 36.5332 7.824 35.1412 7.824C34.8692 7.824 34.5972 7.864 34.3252 7.944C34.0692 8.008 33.8372 8.12 33.6292 8.28C33.4212 8.424 33.2532 8.608 33.1252 8.832C33.0132 9.056 32.9572 9.32 32.9572 9.624V17.76H29.4052ZM51.5238 15.504H51.3798C51.1078 16.208 50.6758 16.808 50.0838 17.304C49.5078 17.8 48.7238 18.048 47.7318 18.048C47.1398 18.048 46.5958 17.952 46.0998 17.76C45.6038 17.552 45.1798 17.248 44.8278 16.848C44.4758 16.448 44.1958 15.96 43.9878 15.384C43.7958 14.808 43.6998 14.144 43.6998 13.392V5.376H47.2518V12.912C47.2518 14.512 47.9478 15.312 49.3398 15.312C49.6118 15.312 49.8758 15.28 50.1318 15.216C50.4038 15.136 50.6358 15.024 50.8278 14.88C51.0358 14.72 51.2038 14.528 51.3318 14.304C51.4598 14.08 51.5238 13.816 51.5238 13.512V5.376H55.0758V17.76H51.5238V15.504ZM64.1625 18.048C62.0825 18.048 60.5065 17.472 59.4345 16.32C58.3625 15.168 57.8265 13.6 57.8265 11.616C57.8265 10.608 57.9625 9.704 58.2345 8.904C58.5225 8.088 58.9225 7.4 59.4345 6.84C59.9625 6.264 60.5945 5.832 61.3305 5.544C62.0825 5.24 62.9225 5.088 63.8505 5.088C64.7785 5.088 65.6105 5.24 66.3465 5.544C67.0825 5.832 67.7065 6.248 68.2185 6.792C68.7305 7.336 69.1225 8 69.3945 8.784C69.6825 9.552 69.8265 10.416 69.8265 11.376V12.432H61.3545V12.648C61.3545 13.448 61.6025 14.096 62.0985 14.592C62.5945 15.072 63.3225 15.312 64.2825 15.312C65.0185 15.312 65.6505 15.176 66.1785 14.904C66.7065 14.616 67.1625 14.24 67.5465 13.776L69.4665 15.864C68.9865 16.456 68.3145 16.968 67.4505 17.4C66.5865 17.832 65.4905 18.048 64.1625 18.048ZM63.8745 7.632C63.1065 7.632 62.4905 7.872 62.0265 8.352C61.5785 8.816 61.3545 9.448 61.3545 10.248V10.44H66.3465V10.248C66.3465 9.432 66.1225 8.792 65.6745 8.328C65.2425 7.864 64.6425 7.632 63.8745 7.632ZM72.6491 15H76.4411V2.76H72.6491V0H79.9931V15H83.7851V17.76H72.6491V15ZM110.238 17.76L109.182 13.728H104.598L103.566 17.76H99.9183L104.454 1.008H109.542L114.078 17.76H110.238ZM106.998 4.488H106.806L105.174 10.824H108.63L106.998 4.488ZM115.893 15H119.541V8.136H115.653V5.376H119.541V3.576C119.541 2.52 119.845 1.664 120.453 1.008C121.077 0.336 122.037 0 123.333 0H127.533V2.76H123.093V5.376H127.533V8.136H123.093V15H126.981V17.76H115.893V15ZM135.78 18.048C134.82 18.048 133.956 17.904 133.188 17.616C132.42 17.312 131.764 16.88 131.22 16.32C130.692 15.76 130.284 15.08 129.996 14.28C129.708 13.48 129.564 12.576 129.564 11.568C129.564 10.56 129.708 9.656 129.996 8.856C130.284 8.056 130.692 7.376 131.22 6.816C131.764 6.256 132.42 5.832 133.188 5.544C133.956 5.24 134.82 5.088 135.78 5.088C136.74 5.088 137.604 5.24 138.372 5.544C139.14 5.832 139.788 6.256 140.316 6.816C140.86 7.376 141.276 8.056 141.564 8.856C141.852 9.656 141.996 10.56 141.996 11.568C141.996 12.576 141.852 13.48 141.564 14.28C141.276 15.08 140.86 15.76 140.316 16.32C139.788 16.88 139.14 17.312 138.372 17.616C137.604 17.904 136.74 18.048 135.78 18.048ZM135.78 15.408C136.58 15.408 137.204 15.16 137.652 14.664C138.1 14.168 138.324 13.464 138.324 12.552V10.584C138.324 9.672 138.1 8.968 137.652 8.472C137.204 7.976 136.58 7.728 135.78 7.728C134.98 7.728 134.356 7.976 133.908 8.472C133.46 8.968 133.236 9.672 133.236 10.584V12.552C133.236 13.464 133.46 14.168 133.908 14.664C134.356 15.16 134.98 15.408 135.78 15.408ZM144.53 17.76V5.376H148.082V7.632H148.226C148.37 7.28 148.546 6.952 148.754 6.648C148.962 6.344 149.21 6.08 149.498 5.856C149.802 5.616 150.146 5.432 150.53 5.304C150.93 5.16 151.378 5.088 151.874 5.088C152.466 5.088 153.01 5.192 153.506 5.4C154.002 5.592 154.426 5.888 154.778 6.288C155.13 6.688 155.402 7.176 155.594 7.752C155.802 8.328 155.906 8.992 155.906 9.744V17.76H152.354V10.224C152.354 8.624 151.658 7.824 150.266 7.824C149.994 7.824 149.722 7.864 149.45 7.944C149.194 8.008 148.962 8.12 148.754 8.28C148.546 8.424 148.378 8.608 148.25 8.832C148.138 9.056 148.082 9.32 148.082 9.624V17.76H144.53ZM164.417 18.048C163.041 18.048 161.841 17.84 160.817 17.424C159.809 17.008 159.049 16.44 158.537 15.72L160.529 13.872C161.009 14.4 161.569 14.816 162.209 15.12C162.865 15.408 163.609 15.552 164.441 15.552C165.145 15.552 165.697 15.448 166.097 15.24C166.497 15.016 166.697 14.68 166.697 14.232C166.697 13.88 166.561 13.64 166.289 13.512C166.017 13.368 165.641 13.256 165.161 13.176L163.169 12.864C162.609 12.784 162.089 12.664 161.609 12.504C161.129 12.328 160.713 12.096 160.361 11.808C160.009 11.52 159.729 11.168 159.521 10.752C159.313 10.336 159.209 9.832 159.209 9.24C159.209 7.944 159.705 6.928 160.697 6.192C161.689 5.456 163.081 5.088 164.873 5.088C166.089 5.088 167.121 5.256 167.969 5.592C168.833 5.912 169.521 6.376 170.033 6.984L168.257 9C167.889 8.6 167.417 8.264 166.841 7.992C166.265 7.72 165.569 7.584 164.753 7.584C163.377 7.584 162.689 8 162.689 8.832C162.689 9.2 162.825 9.456 163.097 9.6C163.369 9.728 163.745 9.832 164.225 9.912L166.193 10.224C166.753 10.304 167.273 10.432 167.753 10.608C168.233 10.768 168.649 10.992 169.001 11.28C169.369 11.568 169.657 11.92 169.865 12.336C170.073 12.752 170.177 13.256 170.177 13.848C170.177 15.144 169.673 16.168 168.665 16.92C167.673 17.672 166.257 18.048 164.417 18.048ZM178.951 18.048C177.991 18.048 177.127 17.904 176.359 17.616C175.591 17.312 174.935 16.88 174.391 16.32C173.863 15.76 173.455 15.08 173.167 14.28C172.879 13.48 172.735 12.576 172.735 11.568C172.735 10.56 172.879 9.656 173.167 8.856C173.455 8.056 173.863 7.376 174.391 6.816C174.935 6.256 175.591 5.832 176.359 5.544C177.127 5.24 177.991 5.088 178.951 5.088C179.911 5.088 180.775 5.24 181.543 5.544C182.311 5.832 182.959 6.256 183.487 6.816C184.031 7.376 184.447 8.056 184.735 8.856C185.023 9.656 185.167 10.56 185.167 11.568C185.167 12.576 185.023 13.48 184.735 14.28C184.447 15.08 184.031 15.76 183.487 16.32C182.959 16.88 182.311 17.312 181.543 17.616C180.775 17.904 179.911 18.048 178.951 18.048ZM178.951 15.408C179.751 15.408 180.375 15.16 180.823 14.664C181.271 14.168 181.495 13.464 181.495 12.552V10.584C181.495 9.672 181.271 8.968 180.823 8.472C180.375 7.976 179.751 7.728 178.951 7.728C178.151 7.728 177.527 7.976 177.079 8.472C176.631 8.968 176.407 9.672 176.407 10.584V12.552C176.407 13.464 176.631 14.168 177.079 14.664C177.527 15.16 178.151 15.408 178.951 15.408Z" fill="#EAEDF3"/>
</svg>
