<svg width="431" height="62" viewBox="0 0 431 62" fill="none" xmlns="http://www.w3.org/2000/svg">
<g clip-path="url(#clip0_2106_1195)">
<path d="M406 45.75C406 46.0815 406.132 46.3995 406.366 46.6339C406.601 46.8683 406.918 47 407.25 47C407.582 47 407.899 46.8683 408.134 46.6339C408.368 46.3995 408.5 46.0815 408.5 45.75C408.5 45.4185 408.368 45.1005 408.134 44.8661C407.899 44.6317 407.582 44.5 407.25 44.5C406.918 44.5 406.601 44.6317 406.366 44.8661C406.132 45.1005 406 45.4185 406 45.75Z" stroke="#FF6B01" stroke-width="3" stroke-linecap="round" stroke-linejoin="round"/>
<path d="M406 27C411.304 27 416.391 29.1071 420.142 32.8579C423.893 36.6086 426 41.6957 426 47" stroke="#FF6B01" stroke-width="3" stroke-linecap="round" stroke-linejoin="round"/>
<path d="M406 35.75C408.984 35.75 411.845 36.9353 413.955 39.045C416.065 41.1548 417.25 44.0163 417.25 47" stroke="#FF6B01" stroke-width="3" stroke-linecap="round" stroke-linejoin="round"/>
</g>
<path d="M20.688 34.072L21.072 24.712H20.64L14.4 41.944L8.16 24.712H7.728L8.112 34.072V49H1.872V15.496H10.368L14.496 26.776H14.88L19.008 15.496H26.928V49H20.688V34.072ZM53.5973 49C52.1253 49 50.9413 48.632 50.0453 47.896C49.1493 47.128 48.6213 46.04 48.4613 44.632H48.2213C47.7733 46.264 46.8773 47.496 45.5333 48.328C44.2213 49.16 42.6053 49.576 40.6853 49.576C38.2853 49.576 36.3493 48.936 34.8773 47.656C33.4373 46.344 32.7173 44.52 32.7173 42.184C32.7173 39.592 33.6613 37.672 35.5493 36.424C37.4373 35.176 40.2053 34.552 43.8533 34.552H47.8373V33.304C47.8373 31.832 47.4853 30.728 46.7813 29.992C46.1093 29.224 44.9573 28.84 43.3253 28.84C41.8213 28.84 40.6053 29.128 39.6773 29.704C38.7493 30.28 37.9493 31.032 37.2773 31.96L33.3893 28.504C34.2213 27.096 35.5173 25.944 37.2773 25.048C39.0693 24.12 41.3573 23.656 44.1413 23.656C47.5333 23.656 50.1733 24.44 52.0613 26.008C53.9813 27.544 54.9413 29.88 54.9413 33.016V43.864H57.6773V49H53.5973ZM43.3733 44.92C44.6213 44.92 45.6773 44.616 46.5413 44.008C47.4053 43.4 47.8373 42.52 47.8373 41.368V38.392H44.0453C41.1333 38.392 39.6773 39.368 39.6773 41.32V42.28C39.6773 43.144 40.0133 43.8 40.6853 44.248C41.3573 44.696 42.2533 44.92 43.3733 44.92ZM63.5625 49V24.232H70.6665V28.744H70.9545C71.2425 28.04 71.5945 27.384 72.0105 26.776C72.4265 26.168 72.9225 25.64 73.4985 25.192C74.1065 24.712 74.7945 24.344 75.5625 24.088C76.3625 23.8 77.2585 23.656 78.2505 23.656C79.4345 23.656 80.5225 23.864 81.5145 24.28C82.5065 24.664 83.3545 25.256 84.0585 26.056C84.7625 26.856 85.3065 27.832 85.6905 28.984C86.1065 30.136 86.3145 31.464 86.3145 32.968V49H79.2105V33.928C79.2105 30.728 77.8185 29.128 75.0345 29.128C74.4905 29.128 73.9465 29.208 73.4025 29.368C72.8905 29.496 72.4265 29.72 72.0105 30.04C71.5945 30.328 71.2585 30.696 71.0025 31.144C70.7785 31.592 70.6665 32.12 70.6665 32.728V49H63.5625ZM109.24 44.488H108.952C108.408 45.896 107.544 47.096 106.36 48.088C105.208 49.08 103.64 49.576 101.656 49.576C100.472 49.576 99.3837 49.384 98.3918 49C97.3998 48.584 96.5518 47.976 95.8477 47.176C95.1437 46.376 94.5837 45.4 94.1678 44.248C93.7837 43.096 93.5917 41.768 93.5917 40.264V24.232H100.696V39.304C100.696 42.504 102.088 44.104 104.872 44.104C105.416 44.104 105.944 44.04 106.456 43.912C107 43.752 107.464 43.528 107.848 43.24C108.264 42.92 108.6 42.536 108.856 42.088C109.112 41.64 109.24 41.112 109.24 40.504V24.232H116.344V49H109.24V44.488ZM135.957 49.576C131.797 49.576 128.645 48.424 126.501 46.12C124.357 43.816 123.285 40.68 123.285 36.712C123.285 34.696 123.557 32.888 124.101 31.288C124.677 29.656 125.477 28.28 126.501 27.16C127.557 26.008 128.821 25.144 130.293 24.568C131.797 23.96 133.477 23.656 135.333 23.656C137.189 23.656 138.853 23.96 140.325 24.568C141.797 25.144 143.045 25.976 144.069 27.064C145.093 28.152 145.877 29.48 146.421 31.048C146.997 32.584 147.285 34.312 147.285 36.232V38.344H130.341V38.776C130.341 40.376 130.837 41.672 131.829 42.664C132.821 43.624 134.277 44.104 136.197 44.104C137.669 44.104 138.933 43.832 139.989 43.288C141.045 42.712 141.957 41.96 142.725 41.032L146.565 45.208C145.605 46.392 144.261 47.416 142.533 48.28C140.805 49.144 138.613 49.576 135.957 49.576ZM135.381 28.744C133.845 28.744 132.613 29.224 131.685 30.184C130.789 31.112 130.341 32.376 130.341 33.976V34.36H140.325V33.976C140.325 32.344 139.877 31.064 138.981 30.136C138.117 29.208 136.917 28.744 135.381 28.744ZM154.37 43.48H161.954V19H154.37V13.48H169.058V43.48H176.642V49H154.37V43.48ZM232.429 49L230.317 40.936H221.149L219.085 49H211.789L220.861 15.496H231.037L240.109 49H232.429ZM225.949 22.456H225.565L222.301 35.128H229.213L225.949 22.456ZM245.178 43.48H252.474V29.752H244.698V24.232H252.474V20.632C252.474 18.52 253.082 16.808 254.298 15.496C255.546 14.152 257.466 13.48 260.058 13.48H268.458V19H259.578V24.232H268.458V29.752H259.578V43.48H267.354V49H245.178V43.48ZM286.391 49.576C284.471 49.576 282.743 49.288 281.207 48.712C279.671 48.104 278.359 47.24 277.271 46.12C276.215 45 275.399 43.64 274.823 42.04C274.247 40.44 273.959 38.632 273.959 36.616C273.959 34.6 274.247 32.792 274.823 31.192C275.399 29.592 276.215 28.232 277.271 27.112C278.359 25.992 279.671 25.144 281.207 24.568C282.743 23.96 284.471 23.656 286.391 23.656C288.311 23.656 290.039 23.96 291.575 24.568C293.111 25.144 294.407 25.992 295.463 27.112C296.551 28.232 297.383 29.592 297.959 31.192C298.535 32.792 298.823 34.6 298.823 36.616C298.823 38.632 298.535 40.44 297.959 42.04C297.383 43.64 296.551 45 295.463 46.12C294.407 47.24 293.111 48.104 291.575 48.712C290.039 49.288 288.311 49.576 286.391 49.576ZM286.391 44.296C287.991 44.296 289.239 43.8 290.135 42.808C291.031 41.816 291.479 40.408 291.479 38.584V34.648C291.479 32.824 291.031 31.416 290.135 30.424C289.239 29.432 287.991 28.936 286.391 28.936C284.791 28.936 283.543 29.432 282.647 30.424C281.751 31.416 281.303 32.824 281.303 34.648V38.584C281.303 40.408 281.751 41.816 282.647 42.808C283.543 43.8 284.791 44.296 286.391 44.296ZM305.332 49V24.232H312.436V28.744H312.724C313.012 28.04 313.364 27.384 313.78 26.776C314.196 26.168 314.692 25.64 315.268 25.192C315.876 24.712 316.564 24.344 317.332 24.088C318.132 23.8 319.028 23.656 320.02 23.656C321.204 23.656 322.292 23.864 323.284 24.28C324.276 24.664 325.124 25.256 325.828 26.056C326.532 26.856 327.076 27.832 327.46 28.984C327.876 30.136 328.084 31.464 328.084 32.968V49H320.98V33.928C320.98 30.728 319.588 29.128 316.804 29.128C316.26 29.128 315.716 29.208 315.172 29.368C314.66 29.496 314.196 29.72 313.78 30.04C313.364 30.328 313.028 30.696 312.772 31.144C312.548 31.592 312.436 32.12 312.436 32.728V49H305.332ZM346.546 49.576C343.794 49.576 341.394 49.16 339.346 48.328C337.33 47.496 335.81 46.36 334.786 44.92L338.77 41.224C339.73 42.28 340.85 43.112 342.13 43.72C343.442 44.296 344.93 44.584 346.594 44.584C348.002 44.584 349.106 44.376 349.906 43.96C350.706 43.512 351.106 42.84 351.106 41.944C351.106 41.24 350.834 40.76 350.29 40.504C349.746 40.216 348.994 39.992 348.034 39.832L344.05 39.208C342.93 39.048 341.89 38.808 340.93 38.488C339.97 38.136 339.138 37.672 338.434 37.096C337.73 36.52 337.17 35.816 336.754 34.984C336.338 34.152 336.13 33.144 336.13 31.96C336.13 29.368 337.122 27.336 339.106 25.864C341.09 24.392 343.874 23.656 347.458 23.656C349.89 23.656 351.954 23.992 353.65 24.664C355.378 25.304 356.754 26.232 357.778 27.448L354.226 31.48C353.49 30.68 352.546 30.008 351.394 29.464C350.242 28.92 348.85 28.648 347.218 28.648C344.466 28.648 343.09 29.48 343.09 31.144C343.09 31.88 343.362 32.392 343.906 32.68C344.45 32.936 345.202 33.144 346.162 33.304L350.098 33.928C351.218 34.088 352.258 34.344 353.218 34.696C354.178 35.016 355.01 35.464 355.714 36.04C356.45 36.616 357.026 37.32 357.442 38.152C357.858 38.984 358.066 39.992 358.066 41.176C358.066 43.768 357.058 45.816 355.042 47.32C353.058 48.824 350.226 49.576 346.546 49.576ZM377.055 49.576C375.135 49.576 373.407 49.288 371.871 48.712C370.335 48.104 369.023 47.24 367.935 46.12C366.879 45 366.063 43.64 365.487 42.04C364.911 40.44 364.623 38.632 364.623 36.616C364.623 34.6 364.911 32.792 365.487 31.192C366.063 29.592 366.879 28.232 367.935 27.112C369.023 25.992 370.335 25.144 371.871 24.568C373.407 23.96 375.135 23.656 377.055 23.656C378.975 23.656 380.703 23.96 382.239 24.568C383.775 25.144 385.071 25.992 386.127 27.112C387.215 28.232 388.047 29.592 388.623 31.192C389.199 32.792 389.487 34.6 389.487 36.616C389.487 38.632 389.199 40.44 388.623 42.04C388.047 43.64 387.215 45 386.127 46.12C385.071 47.24 383.775 48.104 382.239 48.712C380.703 49.288 378.975 49.576 377.055 49.576ZM377.055 44.296C378.655 44.296 379.903 43.8 380.799 42.808C381.695 41.816 382.143 40.408 382.143 38.584V34.648C382.143 32.824 381.695 31.416 380.799 30.424C379.903 29.432 378.655 28.936 377.055 28.936C375.455 28.936 374.207 29.432 373.311 30.424C372.415 31.416 371.967 32.824 371.967 34.648V38.584C371.967 40.408 372.415 41.816 373.311 42.808C374.207 43.8 375.455 44.296 377.055 44.296Z" fill="#EAEDF3"/>
<defs>
<clipPath id="clip0_2106_1195">
<rect width="30" height="30" fill="white" transform="translate(401 22)"/>
</clipPath>
</defs>
</svg>
